<?xml version="1.0" encoding="utf-8"?>
<!-- Generator: Adobe Illustrator 15.0.0, SVG Export Plug-In . SVG Version: 6.00 Build 0)  -->
<!DOCTYPE svg PUBLIC "-//W3C//DTD SVG 1.1//EN" "http://www.w3.org/Graphics/SVG/1.1/DTD/svg11.dtd">
<svg version="1.1" id="Layer_1" xmlns="http://www.w3.org/2000/svg" xmlns:xlink="http://www.w3.org/1999/xlink" x="0px" y="0px"
	 width="50px" height="50px" viewBox="395.945 272.64 50 50" enable-background="new 395.945 272.64 50 50" xml:space="preserve">
<g>
	<path fill="#BFC1C3" d="M420.945,294.652c-3.295,0-5.977,2.681-5.977,5.977c0,3.295,2.682,5.977,5.977,5.977
		s5.977-2.682,5.977-5.977C426.921,297.333,424.24,294.652,420.945,294.652z"/>
	<path fill="#BFC1C3" d="M437.954,285.918h-6.896c0-3.302-2.676-5.977-5.977-5.977h-8.275c-3.301,0-5.977,2.675-5.977,5.977h-6.896
		c-3.301,0-5.977,2.675-5.977,5.976v17.47c0,3.301,2.675,5.977,5.977,5.977h34.02c3.301,0,5.977-2.676,5.977-5.977v-17.47
		C443.931,288.593,441.255,285.918,437.954,285.918z M420.945,311.202c-5.831,0-10.574-4.743-10.574-10.573
		c0-5.831,4.743-10.574,10.574-10.574s10.574,4.743,10.574,10.574C431.519,306.459,426.776,311.202,420.945,311.202z"/>
</g>
</svg>
