<?xml version="1.0" encoding="utf-8"?>
<!-- Generator: Adobe Illustrator 15.0.0, SVG Export Plug-In . SVG Version: 6.00 Build 0)  -->
<!DOCTYPE svg PUBLIC "-//W3C//DTD SVG 1.1//EN" "http://www.w3.org/Graphics/SVG/1.1/DTD/svg11.dtd">
<svg version="1.1" id="Layer_1" xmlns="http://www.w3.org/2000/svg" xmlns:xlink="http://www.w3.org/1999/xlink" x="0px" y="0px"
	 width="340px" height="340px" viewBox="261.445 51.64 340 340" enable-background="new 261.445 51.64 340 340"
	 xml:space="preserve">
<path d="M414.777,355.46c27.621,0,50.004-22.383,50.004-50.479v-8.572v-4.286V157.826c0-19.049-14.287-34.288-33.336-34.288
	s-33.336,15.239-33.336,34.288v135.248c0,5.239,4.286,9.524,9.525,9.524c5.238,0,9.524-4.285,9.524-9.524V157.826
	c0-8.571,5.714-15.238,14.286-15.238s14.287,6.667,14.287,15.238v134.296v4.286v8.572c0,17.144-13.811,31.431-30.955,31.431
	c-17.144,0-30.954-13.811-30.954-31.431V179.733v-19.05v-5.714c0-26.192,21.43-48.099,47.622-48.099s47.622,21.43,47.622,48.099
	v138.104c0,5.239,4.286,9.524,9.524,9.524c5.239,0,9.524-4.285,9.524-9.524V154.969c0-37.146-29.525-67.148-66.671-67.148
	s-66.671,30.003-66.671,67.148v5.714v19.05v124.771C364.774,332.601,387.156,355.46,414.777,355.46z"/>
</svg>
